<svg width="129" height="129" viewBox="0 0 129 129" fill="none" xmlns="http://www.w3.org/2000/svg">
<g clip-path="url(#clip0_2043_180)">
<path fill-rule="evenodd" clip-rule="evenodd" d="M66.3263 32C65.7458 30.0276 65.3037 28.0106 65 25.949V20.0028C76.5565 20.13 87.0558 24.6624 94.8976 32H66.3263ZM62.6148 32C63.2243 29.9935 63.6861 27.9409 64 25.842V20.0028C52.4434 20.13 41.9442 24.6624 34.1024 32H62.6148ZM33.4141 33H62.2974C61.8782 34.267 61.399 35.5154 60.86 36.745C58.5488 42.1875 55.3947 46.9337 51.3976 50.9835L33.4141 33ZM32 32H16V33H31.667C23.9287 41.0637 19.1322 51.9721 19.0027 64H0V65H19.0027C19.1322 77.0279 23.9287 87.9363 31.667 96H16V97H32V113H33V97.333C41.0637 105.071 51.9721 109.868 64 109.997V129H65V109.997C77.0279 109.868 87.9363 105.071 96 97.333V113H97V97H113V96H97.333C105.071 87.9363 109.868 77.0279 109.997 65H129V64H109.997C109.868 51.9721 105.071 41.0637 97.333 33H113V32H97V16H96V31.667C87.9363 23.9287 77.0279 19.1322 65 19.0027V0H64V19.0027C51.9721 19.1322 41.0637 23.9287 33 31.667V16H32V32ZM65 108.997C76.5566 108.87 87.0558 104.338 94.8976 97H66.3263C65.7458 98.9724 65.3037 100.989 65 103.051V108.997ZM64 103.158C63.6861 101.059 63.2243 99.0065 62.6148 97H34.1024C41.9442 104.338 52.4434 108.87 64 108.997V103.158ZM20.0028 64H25.949C28.0106 63.6963 30.0276 63.2542 32 62.6737V34.1024C24.6624 41.9442 20.13 52.4434 20.0028 64ZM25.8421 65H20.0028C20.13 76.5566 24.6624 87.0558 32 94.8976V66.3852C29.9935 65.7757 27.9409 65.3139 25.8421 65ZM108.997 64C108.87 52.4434 104.338 41.9442 97 34.1024V62.6737C98.9724 63.2542 100.989 63.6963 103.051 64H108.997ZM103.158 65C101.059 65.3139 99.0065 65.7757 97 66.3852V94.8976C104.338 87.0558 108.87 76.5565 108.997 65H103.158ZM96 95.5859V66.7025C94.733 67.1218 93.4846 67.601 92.255 68.14C86.8125 70.4512 82.0663 73.6053 78.0165 77.6024L96 95.5859ZM96 62.3663V33.0675L95.9325 33H66.6337C67.0399 34.267 67.5041 35.5154 68.0263 36.745C70.4529 42.2808 73.7137 47.0962 77.8087 51.1912C81.9037 55.2863 86.7192 58.5471 92.255 60.9737C93.4846 61.4959 94.733 61.9601 96 62.3663ZM33 95.9325V66.7026C34.267 67.1218 35.5154 67.601 36.745 68.14C42.2808 70.4908 47.0962 73.7137 51.1912 77.8087C55.2862 81.9037 58.5092 86.7192 60.86 92.255C61.399 93.4846 61.8782 94.733 62.2975 96H33.0675L33 95.9325ZM33 62.3663V34.0002L50.6873 51.6875C46.7028 55.5505 42.0554 58.6459 36.745 60.9737C35.5154 61.4959 34.267 61.9601 33 62.3663ZM66.6337 96H94.9998L77.3125 78.3127C73.4495 82.2972 70.3541 86.9446 68.0263 92.255C67.5041 93.4846 67.0399 94.733 66.6337 96ZM54.0197 54.0197C49.6036 58.4357 44.4308 61.9462 38.5363 64.5556C44.4314 67.091 49.6045 70.5651 54.0197 74.9803C58.4349 79.3955 61.909 84.5686 64.4444 90.4637C67.0538 84.5692 70.5643 79.3964 74.9803 74.9803C79.3955 70.5651 84.5686 67.091 90.4637 64.5556C84.5692 61.9462 79.3964 58.4357 74.9803 54.0197C70.5643 49.6036 67.0538 44.4308 64.4444 38.5363C61.909 44.4314 58.4349 49.6045 54.0197 54.0197Z" fill="url(#paint0_linear_2043_180)"/>
</g>
<defs>
<linearGradient id="paint0_linear_2043_180" x1="31.5" y1="97.5" x2="97" y2="32.5" gradientUnits="userSpaceOnUse">
<stop stop-color="#446EFF"/>
<stop offset="0.366609" stop-color="#2E96FF"/>
<stop offset="0.832213" stop-color="#B1C5FF"/>
</linearGradient>
<clipPath id="clip0_2043_180">
<rect width="129" height="129" fill="white"/>
</clipPath>
</defs>
</svg>
